<svg width="15" height="19" viewBox="0 0 15 19" fill="none" xmlns="http://www.w3.org/2000/svg">
<path d="M12.7765 10.4032V7.51783C12.7752 6.23224 12.319 4.9886 11.4887 4.00713C10.6583 3.02567 9.50745 2.36972 8.23985 2.15546V1.16646C8.23985 0.925822 8.14425 0.695037 7.97409 0.524878C7.80393 0.354719 7.57315 0.259125 7.33251 0.259125C7.09187 0.259125 6.86108 0.354719 6.69092 0.524878C6.52076 0.695037 6.42517 0.925822 6.42517 1.16646V2.15546C5.15756 2.36972 4.00668 3.02567 3.17634 4.00713C2.346 4.9886 1.88978 6.23224 1.88848 7.51783V10.4032C1.359 10.5904 0.900383 10.9367 0.575502 11.3948C0.25062 11.8529 0.0753775 12.4003 0.0737991 12.9619V14.7765C0.0737991 15.0172 0.169394 15.248 0.339553 15.4181C0.509712 15.5883 0.740497 15.6839 0.981138 15.6839H3.83018C4.03913 16.4527 4.49526 17.1315 5.12822 17.6154C5.76117 18.0992 6.53577 18.3614 7.33251 18.3614C8.12925 18.3614 8.90385 18.0992 9.5368 17.6154C10.1698 17.1315 10.6259 16.4527 10.8348 15.6839H13.6839C13.9245 15.6839 14.1553 15.5883 14.3255 15.4181C14.4956 15.248 14.5912 15.0172 14.5912 14.7765V12.9619C14.5896 12.4003 14.4144 11.8529 14.0895 11.3948C13.7646 10.9367 13.306 10.5904 12.7765 10.4032ZM3.70315 7.51783C3.70315 6.55526 4.08553 5.63212 4.76617 4.95149C5.4468 4.27085 6.36994 3.88848 7.33251 3.88848C8.29507 3.88848 9.21821 4.27085 9.89885 4.95149C10.5795 5.63212 10.9619 6.55526 10.9619 7.51783V12.0545H7.33251H3.70315V7.51783ZM7.33251 16.5912C7.01582 16.5893 6.70515 16.5045 6.43137 16.3454C6.15759 16.1862 5.93023 15.9581 5.77189 15.6839H8.89313C8.73479 15.9581 8.50743 16.1862 8.23365 16.3454C7.95987 16.5045 7.64919 16.5893 7.33251 16.5912ZM12.7765 13.8692H1.88848V12.9619C1.88848 12.7212 1.98407 12.4904 2.15423 12.3203C2.32439 12.1501 2.55517 12.0545 2.79582 12.0545H7.33251H11.8692C12.1098 12.0545 12.3406 12.1501 12.5108 12.3203C12.6809 12.4904 12.7765 12.7212 12.7765 12.9619V13.8692Z" fill="#323232"/>
</svg>
