<svg width="24" height="25" viewBox="0 0 24 25" fill="none" xmlns="http://www.w3.org/2000/svg">
<path d="M20 8.50001L14 3.24001C13.45 2.74805 12.7379 2.47607 12 2.47607C11.262 2.47607 10.55 2.74805 9.99997 3.24001L3.99997 8.50001C3.68234 8.78408 3.42887 9.13256 3.25644 9.52225C3.08402 9.91194 2.99659 10.3339 2.99997 10.76V19.5C2.99997 20.2957 3.31604 21.0587 3.87865 21.6213C4.44126 22.1839 5.20432 22.5 5.99997 22.5H18C18.7956 22.5 19.5587 22.1839 20.1213 21.6213C20.6839 21.0587 21 20.2957 21 19.5V10.75C21.0019 10.3256 20.9138 9.90555 20.7414 9.51769C20.5691 9.12983 20.3163 8.78296 20 8.50001ZM14 20.5H9.99997V15.5C9.99997 15.2348 10.1053 14.9804 10.2929 14.7929C10.4804 14.6054 10.7348 14.5 11 14.5H13C13.2652 14.5 13.5195 14.6054 13.7071 14.7929C13.8946 14.9804 14 15.2348 14 15.5V20.5Z" fill="#323232"/>
</svg>
