<svg width="21" height="13" viewBox="0 0 21 13" fill="none" xmlns="http://www.w3.org/2000/svg">
<path d="M11.5 10.5H1.5C1.23478 10.5 0.98043 10.6054 0.792893 10.7929C0.605357 10.9804 0.5 11.2348 0.5 11.5C0.5 11.7652 0.605357 12.0196 0.792893 12.2071C0.98043 12.3946 1.23478 12.5 1.5 12.5H11.5C11.7652 12.5 12.0196 12.3946 12.2071 12.2071C12.3946 12.0196 12.5 11.7652 12.5 11.5C12.5 11.2348 12.3946 10.9804 12.2071 10.7929C12.0196 10.6054 11.7652 10.5 11.5 10.5ZM1.5 2.5H19.5C19.7652 2.5 20.0196 2.39464 20.2071 2.20711C20.3946 2.01957 20.5 1.76522 20.5 1.5C20.5 1.23478 20.3946 0.98043 20.2071 0.792893C20.0196 0.605357 19.7652 0.5 19.5 0.5H1.5C1.23478 0.5 0.98043 0.605357 0.792893 0.792893C0.605357 0.98043 0.5 1.23478 0.5 1.5C0.5 1.76522 0.605357 2.01957 0.792893 2.20711C0.98043 2.39464 1.23478 2.5 1.5 2.5ZM19.5 5.5H1.5C1.23478 5.5 0.98043 5.60536 0.792893 5.79289C0.605357 5.98043 0.5 6.23478 0.5 6.5C0.5 6.76522 0.605357 7.01957 0.792893 7.20711C0.98043 7.39464 1.23478 7.5 1.5 7.5H19.5C19.7652 7.5 20.0196 7.39464 20.2071 7.20711C20.3946 7.01957 20.5 6.76522 20.5 6.5C20.5 6.23478 20.3946 5.98043 20.2071 5.79289C20.0196 5.60536 19.7652 5.5 19.5 5.5Z" fill="#323232"/>
</svg>
