<svg width="20" height="22" viewBox="0 0 20 22" fill="none" xmlns="http://www.w3.org/2000/svg">
<path fill-rule="evenodd" clip-rule="evenodd" d="M5.09902 0.25H14.9C15.917 0.25 16.617 0.25 17.206 0.454C17.7564 0.648678 18.2545 0.967534 18.6617 1.38583C19.0689 1.80413 19.3742 2.31062 19.554 2.866C19.75 3.463 19.749 4.173 19.749 5.226V19.374C19.749 20.84 18.022 21.712 16.885 20.671C16.8485 20.6361 16.8 20.6166 16.7495 20.6166C16.699 20.6166 16.6505 20.6361 16.614 20.671L16.13 21.113C15.202 21.963 13.796 21.963 12.868 21.113C12.7001 20.9562 12.4788 20.8689 12.249 20.8689C12.0192 20.8689 11.798 20.9562 11.63 21.113C10.702 21.963 9.29602 21.963 8.36802 21.113C8.20006 20.9562 7.97882 20.8689 7.74902 20.8689C7.51922 20.8689 7.29799 20.9562 7.13002 21.113C6.20202 21.963 4.79602 21.963 3.86802 21.113L3.38502 20.671C3.3485 20.6358 3.29975 20.6161 3.24902 20.6161C3.1983 20.6161 3.14955 20.6358 3.11302 20.671C1.97602 21.711 0.249023 20.84 0.249023 19.374V5.227C0.249023 4.173 0.249023 3.463 0.444023 2.866C0.623834 2.31062 0.929184 1.80413 1.33638 1.38583C1.74358 0.967534 2.24168 0.648678 2.79202 0.454C3.38202 0.249 4.08202 0.25 5.09902 0.25ZM5.24402 1.75C4.02302 1.75 3.60202 1.76 3.28402 1.871C2.95191 1.99007 2.65164 2.18395 2.40645 2.43764C2.16126 2.69133 1.97772 2.99803 1.87002 3.334C1.75902 3.672 1.75002 4.118 1.75002 5.37V19.374C1.75002 19.494 1.80902 19.566 1.88402 19.601C1.91824 19.6173 1.95639 19.6235 1.99402 19.619C2.03449 19.6121 2.07185 19.5929 2.10102 19.564C2.41394 19.2759 2.82371 19.116 3.24902 19.116C3.67434 19.116 4.08411 19.2759 4.39702 19.564L4.88002 20.006C5.04799 20.1628 5.26922 20.2501 5.49902 20.2501C5.72882 20.2501 5.95006 20.1628 6.11802 20.006C6.56247 19.5965 7.14469 19.3692 7.74902 19.3692C8.35336 19.3692 8.93558 19.5965 9.38002 20.006C9.54799 20.1628 9.76922 20.2501 9.99902 20.2501C10.2288 20.2501 10.4501 20.1628 10.618 20.006C11.0625 19.5965 11.6447 19.3692 12.249 19.3692C12.8534 19.3692 13.4356 19.5965 13.88 20.006C14.048 20.1628 14.2692 20.2501 14.499 20.2501C14.7288 20.2501 14.9501 20.1628 15.118 20.006L15.601 19.564C15.9139 19.2759 16.3237 19.116 16.749 19.116C17.1743 19.116 17.5841 19.2759 17.897 19.564C17.94 19.604 17.977 19.616 18.005 19.619C18.0423 19.6234 18.0801 19.6171 18.114 19.601C18.189 19.566 18.249 19.493 18.249 19.374V5.37C18.249 4.118 18.239 3.672 18.129 3.333C18.021 2.997 17.8371 2.69037 17.5915 2.43685C17.346 2.18332 17.0454 1.98971 16.713 1.871C16.396 1.761 15.975 1.751 14.754 1.751L5.24402 1.75ZM13 6.44C13.0736 6.50561 13.1336 6.58509 13.1765 6.6739C13.2194 6.76271 13.2443 6.8591 13.2499 6.95756C13.2554 7.05601 13.2415 7.1546 13.209 7.24768C13.1764 7.34076 13.1258 7.4265 13.06 7.5L9.48802 11.5C9.41767 11.5788 9.33146 11.6419 9.23504 11.685C9.13862 11.7282 9.03417 11.7505 8.92852 11.7505C8.82288 11.7505 8.71842 11.7282 8.62201 11.685C8.52559 11.6419 8.43938 11.5788 8.36902 11.5L6.94102 9.9C6.80978 9.75154 6.74262 9.55717 6.75421 9.35935C6.76581 9.16154 6.85523 8.97635 7.00292 8.84424C7.15062 8.71213 7.34459 8.64384 7.54247 8.65429C7.74036 8.66474 7.92606 8.75307 8.05902 8.9L8.92902 9.874L11.941 6.501C12.0065 6.42745 12.0859 6.36753 12.1746 6.32466C12.2633 6.28179 12.3595 6.25681 12.4579 6.25115C12.5562 6.24548 12.6547 6.25924 12.7477 6.29165C12.8408 6.32405 12.9265 6.37446 13 6.44ZM4.75002 14.5C4.75002 14.3011 4.82904 14.1103 4.96969 13.9697C5.11035 13.829 5.30111 13.75 5.50002 13.75H14.5C14.6989 13.75 14.8897 13.829 15.0304 13.9697C15.171 14.1103 15.25 14.3011 15.25 14.5C15.25 14.6989 15.171 14.8897 15.0304 15.0303C14.8897 15.171 14.6989 15.25 14.5 15.25H5.50002C5.30111 15.25 5.11035 15.171 4.96969 15.0303C4.82904 14.8897 4.75002 14.6989 4.75002 14.5Z" fill="black"/>
</svg>
