<?xml version="1.0" encoding="UTF-8" standalone="no"?>
<svg
   width="22"
   height="22"
   viewBox="0 0 22 22"
   fill="none"
   version="1.1"
   id="svg4"
   sodipodi:docname="wifi.svg"
   inkscape:version="1.4 (e7c3feb1, 2024-10-09)"
   xmlns:inkscape="http://www.inkscape.org/namespaces/inkscape"
   xmlns:sodipodi="http://sodipodi.sourceforge.net/DTD/sodipodi-0.dtd"
   xmlns="http://www.w3.org/2000/svg"
   xmlns:svg="http://www.w3.org/2000/svg">
  <defs
     id="defs4" />
  <sodipodi:namedview
     id="namedview4"
     pagecolor="#ffffff"
     bordercolor="#000000"
     borderopacity="0.25"
     inkscape:showpageshadow="2"
     inkscape:pageopacity="0.0"
     inkscape:pagecheckerboard="0"
     inkscape:deskcolor="#d1d1d1"
     inkscape:zoom="24.93404"
     inkscape:cx="12.89402"
     inkscape:cy="13.114602"
     inkscape:window-width="1200"
     inkscape:window-height="1027"
     inkscape:window-x="0"
     inkscape:window-y="25"
     inkscape:window-maximized="0"
     inkscape:current-layer="svg4" />
  <path
     id="path1"
     style="fill:#000000;stroke-linecap:round;stroke-linejoin:round"
     d="m 11,0.25 c -5.9276308,0 -10.74891838,4.820655 -10.75,10.748047 -0.003349,2.327381 0.7514622,4.593055 2.1503906,6.453125 a 0.75,0.75 0 0 0 1.0507813,0.148437 0.75,0.75 0 0 0 0.1484375,-1.048828 C 2.3964778,14.951051 1.7471194,13.003572 1.75,11.001953 A 0.750075,0.750075 0 0 0 1.75,11 c 0,-5.1176949 4.1323158,-9.25 9.25,-9.25 5.117695,0 9.25,4.1323051 9.25,9.25 0,2.086813 -0.687573,4.004791 -1.849609,5.550781 a 0.75,0.75 0 0 0 0.148437,1.048828 0.75,0.75 0 0 0 1.050781,-0.148437 C 20.949573,15.655162 21.75,13.417187 21.75,11 21.75,5.0716949 16.928305,0.25 11,0.25 Z m 0,4 C 9.6970099,4.25 8.4214957,4.627164 7.328125,5.3359375 6.2347643,6.0447005 5.369812,7.0546634 4.8378906,8.2441406 4.3059611,9.4336109 4.1294126,10.751576 4.3300781,12.039062 4.5307576,13.326453 5.1000457,14.528823 5.96875,15.5 A 0.75,0.75 0 0 0 7.0273438,15.558594 0.75,0.75 0 0 0 7.0878906,14.5 C 6.412175,13.744577 5.9686006,12.810003 5.8125,11.808594 5.6564055,10.807079 5.7932608,9.7826716 6.2070312,8.8574219 6.6207899,7.9321791 7.2940519,7.145067 8.1445312,6.59375 8.9950205,6.0424235 9.9864501,5.75 11,5.75 c 1.013584,0 2.005015,0.2924294 2.855469,0.84375 0.850464,0.5513184 1.523678,1.3384059 1.9375,2.2636719 0.413734,0.9252662 0.550641,1.9496691 0.394531,2.9511721 -0.156111,1.001422 -0.599687,1.935987 -1.275391,2.691406 a 0.75,0.75 0 0 0 0.06055,1.058594 A 0.75,0.75 0 0 0 16.03125,15.5 c 0.868696,-0.971181 1.437983,-2.17356 1.638672,-3.460938 0.20069,-1.287497 0.02405,-2.6054676 -0.507813,-3.7949214 C 16.630131,7.0546866 15.765211,6.0446991 14.671875,5.3359375 13.578529,4.6271581 12.303016,4.25 11,4.25 Z m 0,4 c -1.5098997,0 -2.75,1.2401003 -2.75,2.75 0,1.130898 0.6960476,2.110746 1.6796875,2.53125 l -1.84375,4.003906 c -0.3240614,0.703133 -0.5794653,1.238967 -0.7265625,1.751953 -0.1470972,0.512987 -0.1653413,1.119971 0.15625,1.597657 a 0.750075,0.750075 0 0 0 0.017578,0.02344 l 0.029297,0.04102 a 0.750075,0.750075 0 0 0 0.00391,0.0039 c 0.3431842,0.462267 0.8921238,0.654934 1.4375,0.728516 C 9.5492785,21.755222 10.17799,21.75 11,21.75 c 0.822,0 1.45055,0.0054 1.996094,-0.06836 0.545544,-0.07375 1.096572,-0.265721 1.439453,-0.728516 a 0.750075,0.750075 0 0 0 0.0039,-0.0078 l 0.0293,-0.03906 a 0.750075,0.750075 0 0 0 0.01367,-0.02148 c 0.32257,-0.477742 0.303347,-1.08467 0.15625,-1.597657 -0.147097,-0.512986 -0.401141,-1.049019 -0.72461,-1.751953 L 12.070312,13.53125 C 13.053955,13.110743 13.75,12.130888 13.75,11 13.75,9.4901139 12.509919,8.25 11,8.25 Z m 0,1.5 c 0.699281,0 1.25,0.550746 1.25,1.25 0,0.699295 -0.550705,1.25 -1.25,1.25 -0.699254,0 -1.25,-0.550719 -1.25,-1.25 0,-0.69924 0.55076,-1.25 1.25,-1.25 z m 0,5.042969 1.552734,3.36914 h -0.002 c 0.323531,0.703067 0.555582,1.222049 0.646485,1.539063 0.0904,0.31525 0.06337,0.314005 0.04297,0.34375 l -0.01172,0.01367 c -0.02312,0.0312 -0.06564,0.08697 -0.433594,0.136718 C 12.427013,20.245061 11.822,20.25 11,20.25 c -0.82201,0 -1.4267931,-0.005 -1.7949219,-0.05469 C 8.8384559,20.145851 8.7943839,20.09135 8.7714844,20.060547 h -0.00195 l -0.00977,-0.01367 v -0.002 c -0.02038,-0.02981 -0.047428,-0.0285 0.042969,-0.34375 0.090903,-0.317014 0.3205926,-0.836196 0.6445312,-1.539063 z" />
</svg>
